<svg fill="none" height="24" viewBox="0 0 24 24" width="24" xmlns="http://www.w3.org/2000/svg"><path d="m19.8803 2h-15.76998c-.6 0-1.05999.52-.98999 1.11l1.79999 16.22c.04.4.33003.74.72003.85l6.07995 1.74c.18.05.3701.05.5501 0l6.0799-1.74c.39-.11.67-.45.72-.85l1.8-16.22c.07-.59-.39-1.11-.99-1.11zm-8.51 13.99c0 .24-.11.46-.3.6-.13.1-.29.15-.45.15-.07 0-.14-.01-.21-.03l-3.11999-.9c-.4-.12-.62994-.53-.50994-.93.11-.4.52999-.62.92999-.51l2.15997.62v-7.98001c0-.41.33997-.75.74997-.75s.75.34.75.75zm5.88-.89c0 .34-.23.64-.57.73l-3.5999.9c-.06.02-.12.02-.18.02-.34 0-.6401-.23-.7301-.57-.1-.4.14-.81.55-.91l3.03-.76v-1.7l-2.2899.33c-.22.03-.4301-.03-.6001-.18-.16-.14-.26-.35-.26-.57v-4.95c0-.37.27-.69.64-.74l3.1501-.45c.41-.06.7899.23.8499.64s-.23.79001-.64.85001l-2.5099.36v3.42999l2.2899-.33c.22-.03.43.03.6.18.16.14.26.35.26.57v3.15z" fill="#000"/></svg>